<svg width="49" height="28" viewBox="0 0 49 28" fill="none" xmlns="http://www.w3.org/2000/svg">
<path d="M24.4062 27.9902C23.5859 27.9902 22.8438 27.668 22.1797 27.0234L0.910156 5.25586C0.65625 4.98242 0.451172 4.67969 0.294922 4.34766C0.138672 3.99609 0.0605469 3.61523 0.0605469 3.20508C0.0605469 2.6582 0.1875 2.16992 0.441406 1.74023C0.695313 1.29102 1.03711 0.939453 1.4668 0.685547C1.91602 0.431641 2.41406 0.304688 2.96094 0.304688C3.76172 0.304688 4.45508 0.587891 5.04102 1.1543L25.8125 22.4238H22.9707L43.7129 1.1543C44.3379 0.587891 45.041 0.304688 45.8223 0.304688C46.3691 0.304688 46.8574 0.431641 47.2871 0.685547C47.7363 0.939453 48.0879 1.29102 48.3418 1.74023C48.5957 2.16992 48.7227 2.6582 48.7227 3.20508C48.7227 3.98633 48.4395 4.66992 47.873 5.25586L26.5742 26.9941C26.2812 27.3262 25.9492 27.5801 25.5781 27.7559C25.207 27.9121 24.8164 27.9902 24.4062 27.9902Z" fill="black"/>
</svg>
