<svg width="33" height="30" viewBox="0 0 33 30" fill="none" xmlns="http://www.w3.org/2000/svg">
<path d="M17.875 6.96777C18.1973 6.96777 18.4756 7.08984 18.71 7.33398C18.9541 7.56836 19.0762 7.84668 19.0762 8.16895V17.8809L17.6113 13.3984L22.2695 19.7119C22.4941 20.0146 22.5918 20.332 22.5625 20.6641C22.543 20.9863 22.3965 21.2451 22.123 21.4404C21.8203 21.6455 21.5029 21.7236 21.1709 21.6748C20.8389 21.626 20.5508 21.4355 20.3066 21.1035L17.0254 16.7676C16.8984 16.6113 16.8057 16.46 16.7471 16.3135C16.6982 16.1572 16.6738 15.9912 16.6738 15.8154V8.16895C16.6738 7.84668 16.791 7.56836 17.0254 7.33398C17.2598 7.08984 17.543 6.96777 17.875 6.96777ZM17.875 29.3945C16.4004 29.3945 14.96 29.1699 13.5537 28.7207C12.1572 28.2715 10.8682 27.6367 9.68652 26.8164C8.50488 25.9961 7.49902 25.0342 6.66895 23.9307C6.34668 23.5303 6.20508 23.1152 6.24414 22.6855C6.2832 22.2559 6.46875 21.9189 6.80078 21.6748C7.16211 21.4014 7.54297 21.3086 7.94336 21.3965C8.35352 21.4844 8.70508 21.6992 8.99805 22.041C9.69141 22.9102 10.4971 23.6719 11.415 24.3262C12.333 24.9707 13.3389 25.4688 14.4326 25.8203C15.5264 26.1816 16.6738 26.3623 17.875 26.3623C19.4473 26.3623 20.917 26.0645 22.2842 25.4688C23.6611 24.8828 24.8672 24.0723 25.9023 23.0371C26.9473 21.9922 27.7627 20.7861 28.3486 19.4189C28.9443 18.042 29.2422 16.5674 29.2422 14.9951C29.2422 13.4229 28.9443 11.9531 28.3486 10.5859C27.7627 9.20898 26.9473 8.00293 25.9023 6.96777C24.8672 5.92285 23.6611 5.10742 22.2842 4.52148C20.917 3.92578 19.4473 3.62793 17.875 3.62793C16.3027 3.62793 14.8281 3.92578 13.4512 4.52148C12.084 5.10742 10.8779 5.92285 9.83301 6.96777C8.78809 8.00293 7.97266 9.20898 7.38672 10.5859C6.80078 11.9531 6.50781 13.4229 6.50781 14.9951H3.47559C3.47559 13.0029 3.84668 11.1377 4.58887 9.39941C5.34082 7.66113 6.37598 6.13281 7.69434 4.81445C9.0127 3.49609 10.541 2.46582 12.2793 1.72363C14.0176 0.97168 15.8828 0.595703 17.875 0.595703C19.8574 0.595703 21.7178 0.97168 23.4561 1.72363C25.1943 2.46582 26.7227 3.49609 28.041 4.81445C29.3691 6.13281 30.4043 7.66113 31.1465 9.39941C31.8984 11.1377 32.2744 13.0029 32.2744 14.9951C32.2744 16.9873 31.8984 18.8525 31.1465 20.5908C30.4043 22.3193 29.3691 23.8428 28.041 25.1611C26.7227 26.4893 25.1943 27.5244 23.4561 28.2666C21.7178 29.0186 19.8574 29.3945 17.875 29.3945ZM2.02539 12.2119H8.66113C9.17871 12.2119 9.50098 12.3828 9.62793 12.7246C9.75488 13.0566 9.68164 13.4131 9.4082 13.7939L6.1416 18.3203C5.92676 18.623 5.66309 18.7744 5.35059 18.7744C5.03809 18.7744 4.77441 18.623 4.55957 18.3203L1.27832 13.8086C0.995117 13.418 0.916992 13.0566 1.04395 12.7246C1.1709 12.3828 1.49805 12.2119 2.02539 12.2119Z" fill="#6B8E23"/>
</svg>
