<svg width="56" height="51" viewBox="0 0 56 51" fill="none" xmlns="http://www.w3.org/2000/svg">
<path d="M8.23242 50.2031C5.80729 50.2031 3.97624 49.5846 2.73926 48.3477C1.50228 47.1107 0.883789 45.2633 0.883789 42.8057V7.86914C0.883789 5.41146 1.50228 3.56413 2.73926 2.32715C3.97624 1.07389 5.80729 0.447266 8.23242 0.447266H32.793C35.2344 0.447266 37.0654 1.07389 38.2861 2.32715C39.5231 3.56413 40.1416 5.41146 40.1416 7.86914V18.9775H35.9912V8.06445C35.9912 6.94141 35.6982 6.08691 35.1123 5.50098C34.5264 4.91504 33.6556 4.62207 32.5 4.62207H8.52539C7.36979 4.62207 6.49902 4.91504 5.91309 5.50098C5.34342 6.08691 5.05859 6.94141 5.05859 8.06445V42.6104C5.05859 43.7334 5.34342 44.5879 5.91309 45.1738C6.49902 45.776 7.36979 46.0771 8.52539 46.0771H32.5C33.6556 46.0771 34.5264 45.776 35.1123 45.1738C35.6982 44.5879 35.9912 43.7334 35.9912 42.6104V31.6729H40.1416V42.8057C40.1416 45.2633 39.5231 47.1107 38.2861 48.3477C37.0654 49.5846 35.2344 50.2031 32.793 50.2031H8.23242ZM21.0254 25.3252C21.0254 24.7718 21.2207 24.2998 21.6113 23.9092C22.002 23.5186 22.4577 23.3232 22.9785 23.3232H46.2939L49.7607 23.4941L48.3447 22.2246L44.6826 18.8066C44.2757 18.4486 44.0723 17.9928 44.0723 17.4395C44.0723 16.9349 44.235 16.5117 44.5605 16.1699C44.9023 15.8281 45.3174 15.6572 45.8057 15.6572C46.2939 15.6572 46.7253 15.8444 47.0996 16.2188L54.4482 23.8359C54.6924 24.0801 54.8633 24.3242 54.9609 24.5684C55.0586 24.8125 55.1074 25.0648 55.1074 25.3252C55.1074 25.5856 55.0586 25.8379 54.9609 26.082C54.8633 26.3099 54.6924 26.554 54.4482 26.8145L47.0996 34.4072C46.7253 34.7979 46.2939 34.9932 45.8057 34.9932C45.3174 34.9932 44.9023 34.8223 44.5605 34.4805C44.235 34.1224 44.0723 33.6911 44.0723 33.1865C44.0723 32.6331 44.2757 32.1774 44.6826 31.8193L48.3447 28.4014L49.7607 27.1562L46.2939 27.3271H22.9785C22.4577 27.3271 22.002 27.1318 21.6113 26.7412C21.2207 26.3343 21.0254 25.8623 21.0254 25.3252Z" fill="black"/>
</svg>
